<svg width="20" height="19" viewBox="0 0 20 19" fill="none" xmlns="http://www.w3.org/2000/svg">
<path fill-rule="evenodd" clip-rule="evenodd" d="M10 0C15.2383 0 19.5 4.2617 19.5 9.5C19.5 14.7383 15.2383 19 10 19C4.7617 19 0.5 14.7383 0.5 9.5C0.5 4.2617 4.7617 0 10 0ZM10 1.425C5.54735 1.425 1.925 5.04735 1.925 9.5C1.925 13.9526 5.54735 17.575 10 17.575C14.4526 17.575 18.075 13.9526 18.075 9.5C18.075 5.04735 14.4526 1.425 10 1.425ZM9.67814 4.84063C10.0724 4.84063 10.3906 5.15983 10.3906 5.55313V9.75403L13.6254 11.6825C13.9626 11.8849 14.0738 12.3219 13.8724 12.6601C13.7384 12.8833 13.5019 13.0078 13.2596 13.0078C13.1352 13.0078 13.0098 12.9755 12.8948 12.908L9.31334 10.7715C9.09864 10.6423 8.96564 10.4095 8.96564 10.1587V5.55313C8.96564 5.15983 9.28484 4.84063 9.67814 4.84063Z" fill="#FF1D6C"/>
</svg>
