<svg width="14" height="14" viewBox="0 0 14 14" fill="none" xmlns="http://www.w3.org/2000/svg">
<mask id="path-1-outside-1_14970_2558" maskUnits="userSpaceOnUse" x="0.0812988" y="0.0810547" width="14" height="14" fill="black">
<rect fill="white" x="0.0812988" y="0.0810547" width="14" height="14"/>
<path fill-rule="evenodd" clip-rule="evenodd" d="M12.6258 2.78816C13.0163 2.39764 13.0163 1.76447 12.6258 1.37395C12.2353 0.983424 11.6021 0.983424 11.2116 1.37395L7 5.58554L2.78841 1.37395C2.39788 0.983424 1.76472 0.983424 1.37419 1.37395C0.983668 1.76447 0.983668 2.39764 1.37419 2.78816L5.58578 6.99975L1.37419 11.2113C0.983668 11.6019 0.983668 12.235 1.37419 12.6256C1.76472 13.0161 2.39788 13.0161 2.78841 12.6256L7 8.41397L11.2116 12.6256C11.6021 13.0161 12.2353 13.0161 12.6258 12.6256C13.0163 12.235 13.0163 11.6019 12.6258 11.2113L8.41421 6.99975L12.6258 2.78816Z"/>
</mask>
<path fill-rule="evenodd" clip-rule="evenodd" d="M12.6258 2.78816C13.0163 2.39764 13.0163 1.76447 12.6258 1.37395C12.2353 0.983424 11.6021 0.983424 11.2116 1.37395L7 5.58554L2.78841 1.37395C2.39788 0.983424 1.76472 0.983424 1.37419 1.37395C0.983668 1.76447 0.983668 2.39764 1.37419 2.78816L5.58578 6.99975L1.37419 11.2113C0.983668 11.6019 0.983668 12.235 1.37419 12.6256C1.76472 13.0161 2.39788 13.0161 2.78841 12.6256L7 8.41397L11.2116 12.6256C11.6021 13.0161 12.2353 13.0161 12.6258 12.6256C13.0163 12.235 13.0163 11.6019 12.6258 11.2113L8.41421 6.99975L12.6258 2.78816Z" fill="white"/>
<path d="M12.6258 1.37395L11.9187 2.08105L11.9187 2.08106L12.6258 1.37395ZM12.6258 2.78816L11.9187 2.08105V2.08105L12.6258 2.78816ZM11.2116 1.37395L11.9187 2.08105L11.9187 2.08105L11.2116 1.37395ZM7 5.58554L6.29289 6.29265C6.48043 6.48018 6.73478 6.58554 7 6.58554C7.26521 6.58554 7.51957 6.48018 7.7071 6.29265L7 5.58554ZM2.78841 1.37395L3.49551 0.666841V0.666841L2.78841 1.37395ZM1.37419 1.37395L2.0813 2.08105L2.0813 2.08105L1.37419 1.37395ZM1.37419 2.78816L0.667085 3.49527H0.667085L1.37419 2.78816ZM5.58578 6.99975L6.29289 7.70686C6.48043 7.51932 6.58578 7.26497 6.58578 6.99975C6.58578 6.73454 6.48043 6.48018 6.29289 6.29265L5.58578 6.99975ZM1.37419 11.2113L2.0813 11.9185L2.0813 11.9185L1.37419 11.2113ZM1.37419 12.6256L2.0813 11.9185L2.0813 11.9184L1.37419 12.6256ZM2.78841 12.6256L2.0813 11.9185H2.0813L2.78841 12.6256ZM7 8.41397L7.7071 7.70686C7.51957 7.51932 7.26521 7.41397 7 7.41397C6.73478 7.41397 6.48043 7.51932 6.29289 7.70686L7 8.41397ZM11.2116 12.6256L11.9187 11.9185L11.9187 11.9185L11.2116 12.6256ZM12.6258 12.6256L11.9187 11.9184L11.9187 11.9185L12.6258 12.6256ZM12.6258 11.2113L11.9187 11.9185L11.9187 11.9185L12.6258 11.2113ZM8.41421 6.99975L7.7071 6.29265C7.51957 6.48018 7.41421 6.73454 7.41421 6.99975C7.41421 7.26497 7.51957 7.51932 7.7071 7.70686L8.41421 6.99975ZM11.9187 2.08106V2.08105L13.3329 3.49527C14.114 2.71422 14.114 1.44789 13.3329 0.666841L11.9187 2.08106ZM11.9187 2.08105H11.9187L13.3329 0.666842C12.5519 -0.114208 11.2855 -0.114208 10.5045 0.666842L11.9187 2.08105ZM7.7071 6.29265L11.9187 2.08105L10.5045 0.666841L6.29289 4.87843L7.7071 6.29265ZM2.0813 2.08105L6.29289 6.29265L7.7071 4.87843L3.49551 0.666841L2.0813 2.08105ZM2.0813 2.08105V2.08105L3.49551 0.666841C2.71446 -0.114207 1.44813 -0.114208 0.667085 0.666841L2.0813 2.08105ZM2.0813 2.08105H2.0813L0.667085 0.666841C-0.113963 1.44789 -0.113963 2.71422 0.667085 3.49527L2.0813 2.08105ZM6.29289 6.29265L2.0813 2.08105L0.667085 3.49527L4.87868 7.70686L6.29289 6.29265ZM2.0813 11.9185L6.29289 7.70686L4.87868 6.29265L0.667085 10.5042L2.0813 11.9185ZM2.0813 11.9184V11.9185L0.667086 10.5042C-0.113963 11.2853 -0.113963 12.5516 0.667086 13.3327L2.0813 11.9184ZM2.0813 11.9185H2.0813L0.667085 13.3327C1.44813 14.1137 2.71446 14.1137 3.49551 13.3327L2.0813 11.9185ZM6.29289 7.70686L2.0813 11.9185L3.49551 13.3327L7.7071 9.12107L6.29289 7.70686ZM11.9187 11.9185L7.7071 7.70686L6.29289 9.12107L10.5045 13.3327L11.9187 11.9185ZM11.9187 11.9185H11.9187L10.5045 13.3327C11.2855 14.1137 12.5519 14.1137 13.3329 13.3327L11.9187 11.9185ZM11.9187 11.9185V11.9184L13.3329 13.3327C14.114 12.5516 14.114 11.2853 13.3329 10.5042L11.9187 11.9185ZM7.7071 7.70686L11.9187 11.9185L13.3329 10.5042L9.12132 6.29265L7.7071 7.70686ZM11.9187 2.08105L7.7071 6.29265L9.12132 7.70686L13.3329 3.49527L11.9187 2.08105Z" fill="white" mask="url(#path-1-outside-1_14970_2558)"/>
</svg>
