<svg width="20" height="17" viewBox="0 0 20 17" fill="none" xmlns="http://www.w3.org/2000/svg">
<path fill-rule="evenodd" clip-rule="evenodd" d="M15.9218 0.767578C17.8943 0.767578 19.4991 2.35651 19.4991 4.30865L19.5 6.60102C19.5 6.776 19.4302 6.94567 19.3056 7.06939C19.1819 7.194 19.0131 7.26381 18.8372 7.26381C18.1417 7.26381 17.5761 7.81879 17.5761 8.50102C17.5761 9.18325 18.1417 9.73823 18.8372 9.73823C19.2031 9.73823 19.5 10.0352 19.5 10.401V12.6916C19.5 14.6438 17.8952 16.2327 15.9227 16.2327H4.0773C2.10484 16.2327 0.5 14.6438 0.5 12.6916V10.401C0.5 10.0352 0.79693 9.73823 1.16279 9.73823C1.85828 9.73823 2.42386 9.18325 2.42386 8.50102C2.42386 7.83823 1.88126 7.33804 1.16279 7.33804C0.98693 7.33804 0.81814 7.26823 0.694419 7.14362C0.569814 7.0199 0.5 6.85023 0.5 6.67525L0.500884 4.30865C0.500884 2.35651 2.10572 0.767578 4.07819 0.767578H15.9218ZM15.9218 2.09316H12.2968L12.2973 3.79096C12.2973 4.15682 12.0004 4.45375 11.6345 4.45375C11.2687 4.45375 10.9717 4.15682 10.9717 3.79096L10.9712 2.09316H4.07819C2.83656 2.09316 1.82647 3.08735 1.82647 4.30865L1.82558 6.092C2.94526 6.36683 3.74944 7.32656 3.74944 8.50102C3.74944 9.68697 2.93112 10.6873 1.82558 10.9781V12.6916C1.82558 13.9129 2.83567 14.9071 4.0773 14.9071H10.9712L10.9717 13.5917C10.9717 13.225 11.2687 12.9289 11.6345 12.9289C12.0004 12.9289 12.2973 13.225 12.2973 13.5917L12.2968 14.9071H15.9227C17.1643 14.9071 18.1744 13.9129 18.1744 12.6916V10.9781C17.0689 10.6873 16.2506 9.68697 16.2506 8.50102C16.2506 7.31418 17.068 6.31469 18.1744 6.02395L18.1735 4.30865C18.1735 3.08735 17.1634 2.09316 15.9218 2.09316ZM11.6345 5.63202C12.0004 5.63202 12.2973 5.92895 12.2973 6.29481V10.5552C12.2973 10.9211 12.0004 11.218 11.6345 11.218C11.2687 11.218 10.9717 10.9211 10.9717 10.5552V6.29481C10.9717 5.92895 11.2687 5.63202 11.6345 5.63202Z" fill="#FF1D6C"/>
</svg>
