<svg width="40" height="40" viewBox="0 0 40 40" fill="none" xmlns="http://www.w3.org/2000/svg">
<rect width="40" height="40" rx="6" fill="#FFB72C"/>
<path d="M28.5019 16.8265C28.5019 12.1264 24.6922 8.31006 20.0001 8.31006C15.3081 8.31006 11.4983 12.1264 11.4983 16.8265C11.4983 20.683 14.1852 24.1378 17.8747 25.1019L18.5965 27.0301C16.5914 27.1506 13.2227 27.6327 13.2227 29.3199C13.2227 31.6097 19.3184 31.6901 20.0402 31.6901C20.7621 31.6901 26.8577 31.6097 26.8577 29.3199C26.8577 27.5925 23.449 27.1506 21.4438 27.0301L22.1256 25.1421C25.815 24.1779 28.5019 20.7232 28.5019 16.8265ZM22.7672 16.8265C22.7672 18.353 21.524 19.5983 20.0001 19.5983C18.4762 19.5983 17.233 18.353 17.233 16.8265C17.233 15.3 18.4762 14.0546 20.0001 14.0546C21.524 14.0546 22.7672 15.3 22.7672 16.8265ZM25.414 29.3199C25.013 29.7216 23.0479 30.3242 20.0001 30.3242C16.9924 30.3242 15.0273 29.7216 14.5862 29.3199C14.9471 28.9584 16.5914 28.4361 19.0777 28.3558L19.5189 29.5208C19.5991 29.7216 19.7595 29.8422 20.0001 29.8422C20.2006 29.8422 20.4011 29.7216 20.4813 29.5208L20.8824 28.3558C23.4089 28.4361 25.013 28.9584 25.414 29.3199Z" fill="white"/>
</svg>
