<svg width="54" height="54" viewBox="0 0 54 54" fill="none" xmlns="http://www.w3.org/2000/svg">
<path fill-rule="evenodd" clip-rule="evenodd" d="M0 26.75C0 11.9775 11.9752 0 26.75 0C41.5225 0 53.5 11.9775 53.5 26.75C53.5 41.5248 41.5225 53.5 26.75 53.5C11.9752 53.5 0 41.5248 0 26.75ZM38.8959 27.4441C39.2764 28.1382 40.0881 28.438 40.9367 28.2097C41.617 28.0275 42.0621 27.4303 42.0413 26.6531C41.9122 21.4945 39.7837 17.3644 35.6305 14.302C33.592 12.7962 31.2837 11.9176 28.7724 11.5901C28.385 11.5417 28.2466 11.3987 28.2697 11.0113C28.295 10.5916 28.2904 10.1673 28.2489 9.74991C28.1682 8.93819 27.534 8.37782 26.7477 8.37782C25.9636 8.37782 25.3295 8.94511 25.2488 9.75222C25.2096 10.1512 25.198 10.557 25.2303 10.956C25.2649 11.3941 25.0989 11.5371 24.6677 11.5994C20.669 12.1736 17.3737 14.0276 14.8324 17.1684C12.6002 19.9264 11.5002 23.1088 11.4587 26.6555C11.4495 27.5871 12.0444 28.2097 12.9668 28.2651C13.8431 28.3181 14.3435 27.9814 14.7725 27.0636C15.3305 25.876 16.2622 25.2234 17.5766 25.2303C18.8657 25.2372 19.8088 25.8714 20.3231 27.0521C20.6782 27.8661 21.2224 28.2743 22.1264 28.2812C23.0511 28.2881 23.6069 27.8753 23.9966 27.0521C24.1617 26.7028 24.4131 26.3929 24.6644 26.0833C24.7781 25.9431 24.8918 25.803 24.9974 25.6592C25.0262 25.6754 25.0545 25.691 25.0827 25.7065C25.111 25.7221 25.1392 25.7376 25.1681 25.7538C25.1743 25.7913 25.182 25.8289 25.1897 25.8667C25.2077 25.9544 25.2257 26.0426 25.2257 26.1297C25.2261 26.8785 25.2266 27.6274 25.2271 28.3764C25.23 32.3716 25.2329 36.3679 25.2096 40.3625C25.2073 40.7522 25.0458 41.2019 24.8152 41.5178C24.4278 42.0459 23.8213 42.152 23.2079 41.9491C22.5369 41.7254 22.2256 41.2134 22.161 40.517C22.0687 39.5347 21.3931 38.9351 20.496 39.0135C19.629 39.0873 19.0824 39.7791 19.1239 40.743C19.2577 43.7916 22.2832 45.8555 25.1681 44.8685C27.1236 44.1998 28.2858 42.5094 28.2904 40.268C28.2969 37.0411 28.2954 33.813 28.294 30.5854C28.2934 29.2023 28.2927 27.8192 28.2927 26.4364V25.6961C29.0053 26.0697 29.3443 26.6139 29.598 27.2181C29.8101 27.7301 30.1629 28.1129 30.7025 28.2097C31.7472 28.3965 32.6581 28.2904 33.1815 27.0383C33.6566 25.8991 34.579 25.2834 35.8196 25.2349C37.0326 25.1865 37.9527 25.7307 38.573 26.7731C38.6412 26.8871 38.6947 27.0098 38.7483 27.1326C38.7944 27.2382 38.8404 27.3439 38.8959 27.4441ZM15.3718 22.5461C15.4179 19.4629 20.7194 15.1599 25.2208 14.6134C31.7123 13.8247 36.6726 18.0055 38.213 22.5646C35.5795 21.6929 33.2989 22.2394 31.3364 24.2203C30.0796 22.9059 28.5761 22.161 26.7589 22.161C24.9418 22.161 23.4313 22.8966 22.1676 24.2203C20.2213 22.274 17.9707 21.6813 15.3718 22.5461Z" fill="#FFB72C"/>
</svg>
