<svg width="20" height="19" viewBox="0 0 20 19" fill="none" xmlns="http://www.w3.org/2000/svg">
<path fill-rule="evenodd" clip-rule="evenodd" d="M2.68649 2.83726C2.68834 2.83726 2.642 2.88546 2.58361 2.94292C2.35933 3.16072 1.895 3.61393 1.89032 4.56207C1.88295 5.88834 2.75507 8.35089 6.95443 12.5494C11.1343 16.7274 13.5931 17.6098 14.9222 17.6098H14.9416C15.8898 17.6051 16.342 17.1399 16.5608 16.9165C16.6275 16.8479 16.6813 16.7979 16.7192 16.7664C17.6423 15.8377 18.115 15.1463 18.1104 14.7033C18.1039 14.251 17.5413 13.7162 16.7637 12.9766C16.5163 12.7412 16.2475 12.4854 15.9639 12.2018C15.2289 11.4687 14.8647 11.5938 14.064 11.8756C12.9564 12.2639 11.4365 12.7922 9.07496 10.4297C6.70975 8.06636 7.23896 6.54823 7.62636 5.44069C7.90626 4.63992 8.03416 4.27475 7.29827 3.53886C7.01004 3.25155 6.75146 2.97907 6.51327 2.72883C5.77831 1.95586 5.24818 1.39699 4.79868 1.3905H4.79126C4.34732 1.3905 3.65778 1.86503 2.68186 2.84097C2.68464 2.83819 2.68649 2.83726 2.68649 2.83726ZM14.9231 19C12.6135 19 9.60231 17.1612 5.97201 13.5327C2.32782 9.8894 0.486253 6.86891 0.500077 4.55465C0.508497 3.02541 1.31018 2.24225 1.6114 1.94845C1.62715 1.92898 1.68091 1.87615 1.69944 1.85762C3.02848 0.527638 3.9247 -0.00991463 4.81629 0.000138223C5.85153 0.0141826 6.58834 0.789 7.52071 1.7705C7.75148 2.01332 8.00172 2.27747 8.28069 2.55551C9.63382 3.90866 9.24827 5.0125 8.93872 5.89853C8.60136 6.8652 8.30942 7.69934 10.0574 9.44731C11.8072 11.1953 12.6413 10.9033 13.6043 10.5632C14.4912 10.2536 15.5923 9.86623 16.9472 11.2194C17.2216 11.4937 17.482 11.7412 17.7221 11.9701C18.7082 12.9071 19.4867 13.6476 19.4998 14.6857C19.5108 15.5708 18.9732 16.4726 17.6461 17.8007L17.0585 17.4022L17.5552 17.8878C17.2614 18.189 16.4792 18.9917 14.9491 19H14.9231Z" fill="#FF1D6C"/>
</svg>
